# File created by Blade
# Date/Time:  Wed Jan 21 17:16:23 2015
# Frame Rate: 120.000 fps
#------------------------------------------------------
:FULLY-SPECIFIED
:DEGREES
2396
root 19.742440 35.587036 -19.286256 -184.187090 1.053050 -181.105988
Spine 2.852199 -0.120336 -1.269569
Head -5.497322 0.799616 2.782672
LeftShoulder -11.137951 -25.111784 9.417689
LeftArm -2.424759 8.730266 -22.985072
LeftForeArm 9.426687 -0.000000 3.192180
LeftHand -4.456486 -0.000000 1.722025
LeftHandThumb1 -26.253704 0.000000 33.147579
RightShoulder -9.370402 -10.693961 -3.555724
RightArm 1.040741 26.260187 32.429456
RightForeArm -29.481530 -0.000000 13.557242
RightHand -7.486564 -0.000000 -0.100805
RightHandThumb1 -24.326973 -0.000000 -32.862282
LeftUpLeg 7.600052 8.147363 1.124268
LeftLeg 1.327632 -0.000000 -0.000000
LeftFoot -17.697946 21.000369 -10.286786
LeftToeBase 18.596043 -0.000000 -0.000000
RightUpLeg 3.002965 -8.243126 -3.304764
RightLeg 15.125922 -0.000000 -0.000000
RightFoot -20.983470 -6.058993 -2.330667
RightToeBase 15.662670 -0.000000 -0.000000
2397
root 19.667435 35.590612 -19.308928 -184.367767 1.109319 -181.061782
Spine 3.306131 -0.078077 -1.368151
Head -5.575020 0.770752 2.906358
LeftShoulder -11.069971 -25.327085 9.893312
LeftArm -2.243390 8.500746 -22.259053
LeftForeArm 9.019673 -0.000000 3.015048
LeftHand -4.733850 -0.000000 1.858167
LeftHandThumb1 -26.253704 0.000000 33.147579
RightShoulder -9.458488 -10.454932 -3.722721
RightArm 0.646130 26.868338 31.679899
RightForeArm -29.921256 -0.000000 14.053898
RightHand -7.445274 -0.000000 -0.064201
RightHandThumb1 -24.326973 -0.000000 -32.862282
LeftUpLeg 7.917566 7.961268 1.076794
LeftLeg 1.188802 -0.000000 -0.000000
LeftFoot -17.520316 21.160137 -10.093190
LeftToeBase 18.090869 -0.000000 -0.000000
RightUpLeg 3.021244 -8.608689 -3.480956
RightLeg 15.496724 -0.000000 -0.000000
RightFoot -20.905633 -5.701201 -2.366615
RightToeBase 15.382906 -0.000000 -0.000000
2398
root 19.587550 35.596577 -19.331793 -184.556352 1.173980 -181.027517
Spine 3.772671 -0.041045 -1.429333
Head -5.645794 0.771778 2.944079
LeftShoulder -11.076851 -25.470275 10.311244
LeftArm -1.959896 8.260977 -21.563822
LeftForeArm 8.713708 -0.000000 2.820112
LeftHand -4.906545 -0.000000 2.246880
LeftHandThumb1 -26.253704 0.000000 33.147579
RightShoulder -9.511702 -10.218164 -3.962662
RightArm 0.289945 27.433836 31.018095
RightForeArm -30.311998 -0.000000 14.453361
RightHand -7.430358 0.000000 -0.315476
RightHandThumb1 -24.326973 -0.000000 -32.862282
LeftUpLeg 8.237930 7.816196 1.002549
LeftLeg 1.043230 -0.000000 -0.000000
LeftFoot -17.384461 21.289570 -10.005305
LeftToeBase 17.708765 -0.000000 -0.000000
RightUpLeg 3.047594 -8.972106 -3.681180
RightLeg 15.880138 -0.000000 -0.000000
RightFoot -20.808940 -5.350230 -2.417148
RightToeBase 15.119548 -0.000000 -0.000000
2399
root 19.514715 35.603843 -19.359107 -184.786421 1.218686 -180.948628
Spine 4.266338 -0.029888 -1.432381
Head -5.663894 0.774109 2.943077
LeftShoulder -11.125165 -25.491892 10.682909
LeftArm -1.580772 7.936250 -20.885372
LeftForeArm 8.566595 0.000000 2.647801
LeftHand -5.135903 -0.000000 2.682614
LeftHandThumb1 -26.253704 0.000000 33.147579
RightShoulder -9.532891 -10.036857 -4.238464
RightArm -0.036716 28.093481 30.415124
RightForeArm -30.626751 -0.000000 14.813703
RightHand -7.108595 -0.000000 -0.419787
RightHandThumb1 -24.326973 -0.000000 -32.862282
LeftUpLeg 8.595408 7.723005 1.001220
LeftLeg 0.911662 -0.000000 -0.000000
LeftFoot -17.329247 21.330918 -9.960257
LeftToeBase 17.498089 -0.000000 -0.000000
RightUpLeg 3.132130 -9.389560 -3.848772
RightLeg 16.243239 -0.000000 -0.000000
RightFoot -20.648049 -4.955051 -2.378665
RightToeBase 14.922178 -0.000000 -0.000000
2400
root 19.436026 35.611668 -19.381289 -184.997450 1.294185 -180.886283
Spine 4.740984 0.022290 -1.399673
Head -5.676413 0.750935 2.846482
LeftShoulder -11.148172 -25.653035 11.038030
LeftArm -1.325570 7.621926 -20.251718
LeftForeArm 8.374841 -0.000000 2.566137
LeftHand -5.121985 -0.000000 2.625819
LeftHandThumb1 -26.253704 0.000000 33.147579
RightShoulder -9.529894 -9.904335 -4.474163
RightArm -0.412004 28.492992 29.723435
RightForeArm -30.693676 -0.000000 15.287439
RightHand -7.227726 0.000000 -0.544005
RightHandThumb1 -24.326973 -0.000000 -32.862282
LeftUpLeg 8.931804 7.613149 0.961688
LeftLeg 0.769280 -0.000000 -0.000000
LeftFoot -17.468417 21.395065 -10.104224
LeftToeBase 17.750098 -0.000000 -0.000000
RightUpLeg 3.185901 -9.568335 -4.000266
RightLeg 16.588671 -0.000000 -0.000000
RightFoot -20.533754 -4.721119 -2.352285
RightToeBase 14.636049 -0.000000 -0.000000
2401
root 19.361441 35.620834 -19.403592 -185.193943 1.392360 -180.773022
Spine 5.180631 0.075075 -1.282151
Head -5.635773 0.745340 2.696692
LeftShoulder -11.207049 -25.822788 11.388765
LeftArm -1.088468 7.432462 -19.698014
LeftForeArm 8.195790 -0.000000 2.517463
LeftHand -5.304116 -0.000000 2.756858
LeftHandThumb1 -26.253704 0.000000 33.147579
RightShoulder -9.522546 -9.850555 -4.794473
RightArm -0.591634 29.099841 29.207863
RightForeArm -30.974067 0.000000 15.520773
RightHand -7.118956 -0.000000 -0.699363
RightHandThumb1 -24.326973 -0.000000 -32.862282
LeftUpLeg 9.243373 7.638298 0.988152
LeftLeg 0.641541 -0.000000 -0.000000
LeftFoot -17.486774 21.462691 -10.101667
LeftToeBase 17.752625 -0.000000 -0.000000
RightUpLeg 3.234410 -9.804199 -4.110631
RightLeg 16.925108 -0.000000 -0.000000
RightFoot -20.415860 -4.395154 -2.285972
RightToeBase 14.558389 -0.000000 -0.000000
